<svg width="202" height="231" viewBox="0 0 202 231" fill="none" xmlns="http://www.w3.org/2000/svg">
<g clip-path="url(#clip0_110_2)">
<path d="M2 89.5L3 42.5L42 64.2329V110L2 89.5Z" fill="#ADA56E" stroke="black"/>
<path d="M36 67L3.5 49.8333V43.4L41.5 64.5L36 67Z" fill="#B2C78E"/>
<path d="M36 106.367V67L41.5 64.5V109.18L36 106.367Z" fill="#79734E"/>
<path d="M3 138.5V90.5L42 110.5V158.5L3 138.5Z" fill="#386F43" stroke="black"/>
<path d="M36 114L3.5 98.3333V91.3337L41.5 110.5L36 114Z" fill="#74A87E"/>
<path d="M36 155V114L41.5 110.5V157.649L36 155Z" fill="#0F4E1C"/>
<path d="M42 110.5V64.5L81 83.7615V130.43L42 110.5Z" fill="#285D26" stroke="black"/>
<path d="M75 87.5L42.5 71.5V65.093L80.5 84.5L75 87.5Z" fill="#60996B"/>
<path d="M75 126.801V87.5L80.5 84.5V129.605L75 126.801Z" fill="#154F20"/>
<path d="M42 158.303V111L81 130.696V178L42 158.303Z" fill="#B1AB86" stroke="black"/>
<path d="M75 134L42.5 118V111.593L80.5 131L75 134Z" fill="#DED7AA"/>
<path d="M75 174.422V134L80.5 131V177.2L75 174.422Z" fill="#6C684D"/>
<path d="M42 206.5V159L81 178.261V227.5L42 206.5Z" fill="#355818" stroke="black"/>
<path d="M75 182L42.5 166V159.593L80.5 178.55L75 182Z" fill="#678B65"/>
<path d="M75 223.615V182L80.5 178.555V226.6L75 223.615Z" fill="#084815"/>
<path d="M2 186L2.5 138.5L41.5 158L42 206.5L2 186Z" fill="#D1CCAD" stroke="black"/>
<path d="M36 162L3.5 146.333V139.5L41.5 158.5L36 162Z" fill="#E4DFBB"/>
<path d="M36 203V162L41.5 158.5V205.649L36 203Z" fill="#AEA772"/>
<path d="M81 129.655V84L138 52.5V82.5L119.5 93V109L81 129.655Z" fill="#145417" stroke="black"/>
<path d="M88.5 125.062V87L137.5 60V53.5L81.5 84V128.804L88.5 125.062Z" fill="#528E62"/>
<path d="M88.5 87L81.5 84V129.4L88.5 125.2V87Z" fill="#084815"/>
<path d="M81 177.5V130.5L119.5 110V157L81 177.5Z" fill="#5F6D48" stroke="black"/>
<path d="M88.5 134.5L81.5 130.819V177L88.5 173V134.5Z" fill="#737E61"/>
<path d="M88.5 134.5L81.48 130.81L119 111V118L88.5 134.5Z" fill="#B1AB86"/>
<path d="M81.5 227.5L81 178.5L119.5 158L120 205L81.5 227.5Z" fill="#355818" stroke="black"/>
<path d="M89 182.3L81.5 178.8L82 226.2L89 222V182.3Z" fill="#084815"/>
<path d="M89 182.3L81.5 178.8L119 158.8V165.3L89 182.3Z" fill="#678B65"/>
<path d="M163.5 102.5V65L199.5 46V112L120.5 156.5V127L163.5 102.5Z" fill="#558E64" stroke="black"/>
<path d="M171 107V68.5L199 54V111.751L126 152.835V132L171 107Z" fill="#174519"/>
<path d="M45 24.5L74.227 9L108 27L78.5 42.5L45 24.5Z" fill="#0F4E1C"/>
<path d="M44.5 25.5L39.5 23L74.5 3L113 25L108.5 27.5L74.5 9.5L44.5 25.5Z" fill="#5A9165"/>
<path d="M118 63L79 43L137 13L199.5 45.5L163.5 64.5L138.5 52L118 63Z" fill="#104612" stroke="black" stroke-width="2"/>
<path d="M87 46L137 20.5L191.5 48.5L197.5 45.5L137 14L81 43L87 46Z" fill="#5C9059"/>
<path d="M41 63L78.5 43.5L118 63L80.5 83.5L41 63Z" fill="#B31C1F" stroke="black" stroke-width="2"/>
<path d="M49 66L77.9792 49.9333L110 66L116 63L78.5 44.5L43 63L49 66Z" fill="#B31C1F"/>
<path d="M138.5 83V53L163 65V102.5L159 104.5L130 87.5L138.5 83Z" fill="#C0E1A4" stroke="black"/>
<path d="M139 60V53.5L162.5 65.3L157.5 68.5L139 60Z" fill="#E3DFC4"/>
<path d="M159 104L157.5 103.1V68.5L162.5 65.3V102.178L159 104Z" fill="#7BA07B"/>
<path d="M120 93L130 87.5L159 104.5L120 126.5V93Z" fill="#819067" stroke="black"/>
<path d="M152 108L123 92L130 88L158 104.5L152 108Z" fill="#9FB180"/>
<path d="M3 42L39.5 22L78.5 43.5L40.5 62.8L3 42Z" fill="#819067" stroke="black" stroke-width="2"/>
<path d="M10.5 45L5 42L39.5 23L76.5 43.5L71 46L39.5 29L10.5 45Z" fill="#A8B88D"/>
<path d="M2 42L74.5 2L114 24L137 12L200.5 46V112.5L120.5 157.822V205L81 228.5L2 186.5V42Z" stroke="black" stroke-width="3"/>
<path d="M78.5 54L80.6329 59.8734L87.535 59.8734L81.9511 63.5033L84.084 69.3766L78.5 65.7467L72.916 69.3766L75.0489 63.5033L69.465 59.8734L76.3671 59.8734L78.5 54Z" fill="#FFFC04"/>
</g>
<defs>
<clipPath id="clip0_110_2">
<rect width="202" height="231" fill="white"/>
</clipPath>
</defs>
</svg>
